<?xml version="1.0" standalone="no"?>
<!DOCTYPE svg PUBLIC "-//W3C//DTD SVG 20010904//EN"
 "http://www.w3.org/TR/2001/REC-SVG-20010904/DTD/svg10.dtd">
<svg version="1.0" xmlns="http://www.w3.org/2000/svg"
 width="392.000000pt" height="392.000000pt" viewBox="0 0 392.000000 392.000000"
 preserveAspectRatio="xMidYMid meet">

<g transform="translate(0.000000,392.000000) scale(0.100000,-0.100000)"
fill="#000000" stroke="none">
<path d="M0 2495 l0 -1425 538 0 537 1 197 87 197 87 122 175 c80 115 142 217
181 297 32 68 58 125 58 127 0 2 -48 7 -107 11 -72 4 -133 15 -183 31 -104 34
-102 31 -79 85 l20 46 98 10 c89 10 108 9 207 -12 l109 -24 -30 26 c-16 14
-93 81 -170 148 l-140 123 -125 273 -125 274 -11 245 c-6 135 -8 248 -5 252 3
4 40 4 81 0 l75 -7 34 -237 35 -237 30 22 c17 12 84 73 148 135 l117 114 25
-51 c14 -28 26 -56 26 -64 0 -7 -67 -68 -150 -135 l-149 -123 23 -52 c50 -113
110 -242 115 -249 3 -4 35 38 71 92 36 55 68 100 72 100 10 0 58 -95 58 -115
0 -8 -30 -60 -67 -116 -66 -99 -66 -100 -47 -119 10 -10 87 -78 169 -150 l150
-131 52 6 c52 5 57 3 373 -155 176 -88 320 -163 320 -166 0 -5 -106 -199 -115
-212 -1 -1 -76 -7 -166 -14 -90 -6 -165 -12 -167 -14 -2 -1 -27 -135 -56 -297
l-53 -295 -179 -323 c-98 -177 -180 -327 -182 -333 -1 -6 95 -55 214 -108
l216 -98 779 0 779 0 0 1960 0 1960 -1960 0 -1960 0 0 -1425z m2723 654 c44
-23 44 -21 27 -269 l-11 -155 -76 -175 c-84 -191 -93 -207 -232 -390 -52 -69
-96 -126 -97 -128 -1 -2 -21 6 -45 18 -35 18 -53 21 -97 16 -30 -4 -52 -2 -50
2 2 7 216 205 256 238 2 1 -21 39 -51 84 l-55 82 20 49 c11 27 23 49 27 49 3
0 28 -34 55 -75 27 -41 51 -75 55 -75 3 0 29 52 58 115 l51 114 -118 97 -118
96 17 41 c10 22 22 42 27 44 5 2 59 -37 119 -86 60 -49 111 -88 113 -87 2 2
41 399 42 424 0 6 44 -10 83 -29z"/>
</g>
</svg>
